<svg width="19" height="19" viewBox="0 0 19 19" fill="none" xmlns="http://www.w3.org/2000/svg">
<path fill-rule="evenodd" clip-rule="evenodd" d="M18.75 0.669643V6.02679C18.7485 6.97544 18.4116 7.89301 17.7989 8.61725C17.1862 9.34149 16.3371 9.82574 15.4018 9.98438V17.4107H18.0804V18.75H11.3839V17.4107H14.0625V9.98438C13.1272 9.82574 12.2781 9.34149 11.6654 8.61725C11.0527 7.89301 10.7158 6.97544 10.7143 6.02679V0.669643C10.7143 0.492042 10.7848 0.321716 10.9104 0.196134C11.036 0.0705514 11.2063 0 11.3839 0H18.0804C18.258 0 18.4283 0.0705514 18.5539 0.196134C18.6794 0.321716 18.75 0.492042 18.75 0.669643ZM12.0536 1.33929V6.02679C12.0536 6.73719 12.3358 7.41849 12.8381 7.92082C13.3404 8.42315 14.0217 8.70536 14.7321 8.70536C15.4425 8.70536 16.1238 8.42315 16.6262 7.92082C17.1285 7.41849 17.4107 6.73719 17.4107 6.02679V1.33929H12.0536ZM6.69643 6.04018V0H8.03571V6.04018C8.0339 6.98623 7.69636 7.90093 7.08321 8.62138C6.47006 9.34184 5.62109 9.82128 4.6875 9.97433V18.75H3.34821V9.96763C2.41714 9.81176 1.57089 9.33243 0.958433 8.61403C0.345982 7.89562 0.00658897 6.98419 0 6.04018V0H1.33929V6.04018C1.34724 6.75031 1.63652 7.4283 2.14369 7.92542C2.65086 8.42254 3.33449 8.69821 4.04464 8.69196C4.74772 8.69126 5.4218 8.41164 5.91896 7.91449C6.41611 7.41734 6.69572 6.74326 6.69643 6.04018ZM4.6875 0H3.34821V6.68304H4.6875V0Z" fill="#7C6A46"/>
</svg>
