<svg width="12" height="14" viewBox="0 0 12 14" fill="none" xmlns="http://www.w3.org/2000/svg">
<path d="M2.39571 5.09094C2.39571 4.32163 3.00831 3.70903 3.77762 3.70903H6.74091V5.09094C6.74091 5.37588 6.89762 5.63231 7.13982 5.76053C7.25379 5.81752 7.36776 5.84601 7.48173 5.84601C7.63845 5.84601 7.78091 5.80327 7.90913 5.70355L10.8867 3.56656C11.0861 3.4241 11.2001 3.19615 11.2001 2.95396C11.2001 2.71177 11.0861 2.48382 10.8867 2.34136L7.90913 0.20437C7.68118 0.0476575 7.38201 0.0191643 7.13982 0.147384C6.89762 0.275603 6.74091 0.532041 6.74091 0.816972V2.19889H3.79187C2.19625 2.19889 0.914062 3.49533 0.914062 5.0767V8.55286L2.40995 7.48437V5.09094H2.39571Z" fill="#FFFBFB"/>
<path d="M9.63268 8.59559C9.63268 9.36491 9.02008 9.97751 8.25076 9.97751H5.27323V8.59559C5.27323 8.31066 5.11652 8.05422 4.87432 7.92601C4.63213 7.79779 4.33295 7.82628 4.10501 7.98299L1.11323 10.12C0.913777 10.2624 0.799805 10.4904 0.799805 10.7326C0.799805 10.9748 0.913777 11.2027 1.11323 11.3452L4.09076 13.4822C4.21898 13.5676 4.37569 13.6246 4.51816 13.6246C4.63213 13.6246 4.74611 13.5961 4.86008 13.5392C5.10227 13.4109 5.25898 13.1545 5.25898 12.8696V11.4876H8.23652C9.83213 11.4876 11.1143 10.1912 11.1143 8.60984V5.11943L9.61843 6.18792V8.59559H9.63268Z" fill="#FFFBFB"/>
</svg>
