<svg width="16" height="16" viewBox="0 0 16 16" fill="none" xmlns="http://www.w3.org/2000/svg">
<path fill-rule="evenodd" clip-rule="evenodd" d="M11.5854 0C11.8506 0 12.1049 0.10536 12.2925 0.29289L15.7071 3.70753C16.0976 4.09805 16.0976 4.73122 15.7071 5.12174L5.4632 15.3656C5.2978 15.5311 5.0796 15.6333 4.8466 15.6544L1.09054 15.9959C0.794982 16.0228 0.502752 15.917 0.292902 15.7071C0.083042 15.4973 -0.0227583 15.205 0.00411174 14.9095L0.345572 11.1534C0.366752 10.9204 0.468942 10.7022 0.634362 10.5368L10.8783 0.29289C11.0658 0.10536 11.3202 0 11.5854 0ZM9.9264 4.07317L11.9268 6.07359L13.5858 4.41463L11.5854 2.41421L9.9264 4.07317ZM10.5126 7.48781L8.5122 5.48738L2.30458 11.695L2.10454 13.8955L4.305 13.6954L10.5126 7.48781Z" fill="black"/>
</svg>
