<svg width="20" height="14" viewBox="0 0 20 14" fill="none" xmlns="http://www.w3.org/2000/svg">
<path d="M18.2 0H1.4C1.0287 0 0.672601 0.1475 0.410051 0.41005C0.1475 0.672601 0 1.0287 0 1.4V12.6C0 12.9713 0.1475 13.3274 0.410051 13.5899C0.672601 13.8525 1.0287 14 1.4 14H18.2C18.5713 14 18.9274 13.8525 19.19 13.5899C19.4525 13.3274 19.6 12.9713 19.6 12.6V1.4C19.6 1.0287 19.4525 0.672601 19.19 0.41005C18.9274 0.1475 18.5713 0 18.2 0ZM16.66 1.4L9.8 6.146L2.94 1.4H16.66ZM1.4 12.6V2.037L9.401 7.574C9.51818 7.65529 9.65739 7.69885 9.8 7.69885C9.94261 7.69885 10.0818 7.65529 10.199 7.574L18.2 2.037V12.6H1.4Z" fill="black" fill-opacity="0.4"/>
</svg>
