<svg width="20" height="26" viewBox="0 0 20 26" fill="none" xmlns="http://www.w3.org/2000/svg">
<path d="M2.45 25.725C1.77625 25.725 1.19968 25.4853 0.7203 25.0059C0.2401 24.5257 0 23.9487 0 23.275V11.025C0 10.3513 0.2401 9.77427 0.7203 9.29408C1.19968 8.81469 1.77625 8.575 2.45 8.575H3.675V6.125C3.675 4.43042 4.27239 2.98573 5.46718 1.79095C6.66114 0.596983 8.10542 0 9.8 0C11.4946 0 12.9393 0.596983 14.1341 1.79095C15.328 2.98573 15.925 4.43042 15.925 6.125V8.575H17.15C17.8237 8.575 18.4007 8.81469 18.8809 9.29408C19.3603 9.77427 19.6 10.3513 19.6 11.025V23.275C19.6 23.9487 19.3603 24.5257 18.8809 25.0059C18.4007 25.4853 17.8237 25.725 17.15 25.725H2.45ZM2.45 23.275H17.15V11.025H2.45V23.275ZM9.8 19.6C10.4738 19.6 11.0507 19.3603 11.5309 18.8809C12.0103 18.4007 12.25 17.8237 12.25 17.15C12.25 16.4762 12.0103 15.8993 11.5309 15.4191C11.0507 14.9397 10.4738 14.7 9.8 14.7C9.12625 14.7 8.54968 14.9397 8.0703 15.4191C7.5901 15.8993 7.35 16.4762 7.35 17.15C7.35 17.8237 7.5901 18.4007 8.0703 18.8809C8.54968 19.3603 9.12625 19.6 9.8 19.6ZM6.125 8.575H13.475V6.125C13.475 5.10417 13.1177 4.23646 12.4031 3.52188C11.6885 2.80729 10.8208 2.45 9.8 2.45C8.77917 2.45 7.91146 2.80729 7.19688 3.52188C6.48229 4.23646 6.125 5.10417 6.125 6.125V8.575Z" fill="black" fill-opacity="0.4"/>
</svg>
