<svg width="79" height="50" viewBox="0 0 79 50" fill="none" xmlns="http://www.w3.org/2000/svg">
<path d="M67.1051 35.5263H78.9472L39.4736 0L0 35.5263H11.8421L39.4736 10.6184L67.1051 35.5263ZM19.7368 7.14473V0H7.89472V17.7631L19.7368 7.14473Z" fill="white"/>
<path d="M41.1763 28.3026L35.4211 45H29.4764L23.6974 28.3026H28.6711L32.4606 40.3579L36.2263 28.3026H41.1763Z" fill="white"/>
<path d="M55.271 45H50.901V38.192C50.901 37.594 50.763 37.1647 50.487 36.904C50.2263 36.628 49.8967 36.49 49.498 36.49C49.314 36.49 49.084 36.559 48.808 36.697C48.5473 36.835 48.2943 37.0343 48.049 37.295C47.8037 37.5557 47.612 37.8623 47.474 38.215V45H43.104V28.21H47.474V34.696C47.9033 34.0367 48.463 33.5383 49.153 33.201C49.8583 32.8483 50.6327 32.672 51.476 32.672C52.3347 32.672 53.017 32.8177 53.523 33.109C54.029 33.385 54.4047 33.7453 54.65 34.19C54.8953 34.6347 55.0563 35.11 55.133 35.616C55.225 36.122 55.271 36.5973 55.271 37.042V45Z" fill="white"/>
</svg>
