<svg width="20" height="26" viewBox="0 0 20 26" fill="none" xmlns="http://www.w3.org/2000/svg">
<path d="M5.20123 0.136015L4.05019 0.482771C3.0253 0.791847 2.11003 1.38727 1.4121 2.19895C0.714178 3.01064 0.262648 4.00481 0.110657 5.06444C-0.366132 8.38431 0.699821 12.2661 3.26999 16.7177C5.83374 21.1581 8.65594 24.0188 11.7623 25.271C12.7604 25.6733 13.853 25.7804 14.9102 25.5798C15.9675 25.3792 16.9448 24.8792 17.7262 24.1392L18.5963 23.3141C19.1613 22.7793 19.5129 22.0577 19.5859 21.2832C19.6588 20.5087 19.448 19.734 18.9928 19.1032L16.8159 16.0852C16.5216 15.6777 16.1072 15.3726 15.6308 15.2125C15.1543 15.0525 14.6397 15.0455 14.1591 15.1926L10.8665 16.1992L10.7814 16.2152C10.4186 16.2682 9.58062 15.4832 8.53715 13.6755C7.44551 11.7844 7.22076 10.6784 7.52096 10.3926L9.19534 8.8306C9.80764 8.25983 10.2259 7.51171 10.3915 6.69118C10.557 5.87064 10.4615 5.01887 10.1184 4.25535L9.05567 1.89387C8.73611 1.18325 8.16903 0.61309 7.46016 0.289667C6.75129 -0.0337561 5.94739 -0.088367 5.20123 0.136015ZM7.5932 2.55207L8.65273 4.91354C8.85908 5.37144 8.91678 5.88248 8.81773 6.37486C8.71868 6.86723 8.46785 7.31621 8.10049 7.65869L6.42129 9.2223C5.34731 10.2401 5.7037 11.9771 7.14852 14.4782C8.50665 16.8317 9.74598 17.9939 11.0784 17.7917L11.2775 17.7499L14.6295 16.7273C14.7897 16.6781 14.9613 16.6803 15.1202 16.7335C15.2791 16.7868 15.4174 16.8885 15.5156 17.0243L17.6925 20.0424C17.9204 20.3577 18.026 20.7452 17.9897 21.1326C17.9534 21.52 17.7776 21.8811 17.495 22.1486L16.6233 22.9737C16.0652 23.5019 15.3672 23.8588 14.6122 24.002C13.8572 24.1451 13.077 24.0685 12.3643 23.7812C9.63842 22.6832 7.06183 20.0713 4.66183 15.915C2.25541 11.7491 1.28096 8.20612 1.69996 5.2924C1.80842 4.53537 2.13092 3.82508 2.62948 3.24517C3.12805 2.66526 3.78193 2.23987 4.51414 2.01909L5.66517 1.67234C6.03835 1.5602 6.43957 1.58762 6.79402 1.74949C7.14847 1.91135 7.43195 2.19661 7.59159 2.55207H7.5932Z" fill="black" fill-opacity="0.4"/>
</svg>
