<svg width="30" height="20" viewBox="0 0 30 20" fill="none" xmlns="http://www.w3.org/2000/svg">
<path d="M8 12C10.2133 12 12 10.2133 12 8C12 5.78667 10.2133 4 8 4C5.78667 4 4 5.78667 4 8C4 10.2133 5.78667 12 8 12ZM8 6.66667C8.73333 6.66667 9.33333 7.26667 9.33333 8C9.33333 8.73333 8.73333 9.33333 8 9.33333C7.26667 9.33333 6.66667 8.73333 6.66667 8C6.66667 7.26667 7.26667 6.66667 8 6.66667ZM24 2.66667H13.3333V13.3333H2.66667V0H0V20H2.66667V16H26.6667V20H29.3333V8C29.3333 5.05333 26.9467 2.66667 24 2.66667ZM26.6667 13.3333H16V5.33333H24C25.4667 5.33333 26.6667 6.53333 26.6667 8V13.3333Z" fill="black" fill-opacity="0.6"/>
</svg>
