<svg width="12" height="10" viewBox="0 0 12 10" fill="none" xmlns="http://www.w3.org/2000/svg">
<path d="M2.53846 9.01439C2.53846 9.08571 2.51731 9.15542 2.47769 9.21472C2.43807 9.27402 2.38175 9.32023 2.31587 9.34752C2.24998 9.37481 2.17748 9.38195 2.10754 9.36804C2.03759 9.35413 1.97334 9.31979 1.92292 9.26936C1.87249 9.21893 1.83815 9.15468 1.82423 9.08474C1.81032 9.01479 1.81746 8.94229 1.84475 8.87641C1.87204 8.81052 1.91826 8.75421 1.97756 8.71459C2.03685 8.67496 2.10657 8.65382 2.17788 8.65382C2.27351 8.65382 2.36523 8.69181 2.43285 8.75943C2.50047 8.82705 2.53846 8.91876 2.53846 9.01439ZM3.62019 7.21151C3.54887 7.21151 3.47916 7.23266 3.41986 7.27228C3.36056 7.3119 3.31435 7.36822 3.28706 7.4341C3.25977 7.49999 3.25263 7.57249 3.26654 7.64243C3.28045 7.71238 3.31479 7.77663 3.36522 7.82705C3.41565 7.87748 3.4799 7.91182 3.54984 7.92574C3.61979 7.93965 3.69229 7.93251 3.75817 7.90522C3.82406 7.87793 3.88037 7.83171 3.91999 7.77241C3.95961 7.71312 3.98076 7.6434 3.98076 7.57209C3.98076 7.47646 3.94277 7.38474 3.87515 7.31712C3.80753 7.2495 3.71582 7.21151 3.62019 7.21151ZM0.735576 7.21151C0.664261 7.21151 0.594547 7.23266 0.535251 7.27228C0.475954 7.3119 0.429739 7.36822 0.402447 7.4341C0.375156 7.49999 0.368016 7.57249 0.381929 7.64243C0.395841 7.71238 0.430183 7.77663 0.48061 7.82705C0.531038 7.87748 0.595287 7.91182 0.665231 7.92574C0.735176 7.93965 0.807676 7.93251 0.873563 7.90522C0.93945 7.87793 0.995764 7.83171 1.03538 7.77241C1.07501 7.71312 1.09615 7.6434 1.09615 7.57209C1.09615 7.47646 1.05816 7.38474 0.990542 7.31712C0.922921 7.2495 0.831207 7.21151 0.735576 7.21151ZM2.17788 5.76921C2.10657 5.76921 2.03685 5.79035 1.97756 5.82998C1.91826 5.8696 1.87204 5.92591 1.84475 5.9918C1.81746 6.05768 1.81032 6.13018 1.82423 6.20013C1.83815 6.27007 1.87249 6.33432 1.92292 6.38475C1.97334 6.43518 2.03759 6.46952 2.10754 6.48343C2.17748 6.49734 2.24998 6.4902 2.31587 6.46291C2.38175 6.43562 2.43807 6.38941 2.47769 6.33011C2.51731 6.27081 2.53846 6.2011 2.53846 6.12978C2.53846 6.03415 2.50047 5.94244 2.43285 5.87482C2.36523 5.8072 2.27351 5.76921 2.17788 5.76921ZM11.1923 0.180276C11.1923 0.228091 11.1733 0.273948 11.1395 0.307759C11.1057 0.341569 11.0598 0.360564 11.012 0.360564H9.71888C9.67121 0.360646 9.62551 0.379606 9.59178 0.413298L8.29551 1.70957L7.30978 7.48194C7.29335 7.57982 7.2503 7.6713 7.18535 7.74634C7.1204 7.82139 7.03605 7.87712 6.94154 7.90742C6.88775 7.9244 6.83164 7.93291 6.77523 7.93266C6.63214 7.9323 6.49503 7.87525 6.39392 7.77401L1.97686 3.35695C1.90639 3.28687 1.8566 3.19872 1.83295 3.10219C1.80929 3.00566 1.8127 2.90447 1.84278 2.80975C1.87287 2.71503 1.92847 2.63042 2.00349 2.56523C2.0785 2.50003 2.17003 2.45677 2.26803 2.44019L8.03724 1.45446L9.33352 0.15819C9.384 0.107514 9.44409 0.0674193 9.51026 0.0402542C9.57643 0.0130891 9.64735 -0.000600304 9.71888 -1.23514e-05H11.012C11.0598 -1.23514e-05 11.1057 0.0189823 11.1395 0.0527929C11.1733 0.0866034 11.1923 0.13246 11.1923 0.180276ZM7.90699 1.84298L2.32977 2.79445C2.29697 2.79974 2.26627 2.81398 2.24105 2.83561C2.21584 2.85724 2.19709 2.88542 2.18688 2.91703C2.17667 2.94865 2.17539 2.98247 2.18319 3.01476C2.19098 3.04706 2.20755 3.07657 2.23107 3.10004L6.64812 7.5171C6.67154 7.5406 6.70098 7.55718 6.73321 7.56503C6.76544 7.57287 6.79921 7.57167 6.8308 7.56156C6.86239 7.55145 6.89058 7.53282 6.91227 7.50772C6.93396 7.48262 6.9483 7.45202 6.95371 7.41929L7.90699 1.84298Z" fill="#307791"/>
</svg>
