<svg width="12" height="10" viewBox="0 0 12 10" fill="none" xmlns="http://www.w3.org/2000/svg">
<path d="M4.23529 9.37497V8.8235H4.78677V8.27203H2.02941C1.59063 8.27203 1.16983 8.09773 0.859566 7.78746C0.549304 7.4772 0.375 7.05639 0.375 6.61762V1.65438C0.375 1.2156 0.549304 0.794798 0.859566 0.484536C1.16983 0.174273 1.59063 -3.05176e-05 2.02941 -3.05176e-05H10.3015C10.7402 -3.05176e-05 11.1611 0.174273 11.4713 0.484536C11.7816 0.794798 11.9559 1.2156 11.9559 1.65438V6.61762C11.9559 7.05639 11.7816 7.4772 11.4713 7.78746C11.1611 8.09773 10.7402 8.27203 10.3015 8.27203H7.54412V8.8235H8.09559V9.37497H4.23529ZM5.33824 8.27203V8.8235H6.99265V8.27203H5.33824ZM2.02941 0.55144C1.73689 0.55144 1.45636 0.667642 1.24951 0.874484C1.04267 1.08133 0.926471 1.36186 0.926471 1.65438V6.61762C0.926471 6.91014 1.04267 7.19067 1.24951 7.39751C1.45636 7.60436 1.73689 7.72056 2.02941 7.72056H10.3015C10.594 7.72056 10.8745 7.60436 11.0814 7.39751C11.2882 7.19067 11.4044 6.91014 11.4044 6.61762V1.65438C11.4044 1.36186 11.2882 1.08133 11.0814 0.874484C10.8745 0.667642 10.594 0.55144 10.3015 0.55144H2.02941Z" fill="#307791"/>
</svg>
