<svg width="13" height="11" viewBox="0 0 13 11" fill="none" xmlns="http://www.w3.org/2000/svg">
<path d="M8.09475 6.93443C7.58603 6.50961 6.94477 6.27608 6.28201 6.27425C5.61925 6.27243 4.97671 6.50243 4.46566 6.92443V6.93443M9.82704 4.96524C8.82657 4.13987 7.57003 3.68846 6.27305 3.68846C4.97607 3.68846 3.71952 4.13987 2.71906 4.96524M11.5348 2.89827C10.0536 1.67136 8.19067 0.999969 6.26738 0.999969C4.34409 0.999969 2.48113 1.67136 1 2.89827M6.27305 8.0973C6.04781 8.0973 5.82763 8.16409 5.64035 8.28923C5.45307 8.41437 5.3071 8.59223 5.2209 8.80032C5.13471 9.00842 5.11216 9.2374 5.1561 9.45831C5.20004 9.67922 5.3085 9.88214 5.46777 10.0414C5.62704 10.2007 5.82996 10.3091 6.05087 10.3531C6.27179 10.397 6.50077 10.3745 6.70886 10.2883C6.91696 10.2021 7.09482 10.0561 7.21995 9.86884C7.34509 9.68156 7.41188 9.46138 7.41188 9.23614C7.41188 9.08658 7.38243 8.93849 7.32519 8.80032C7.26796 8.66215 7.18408 8.53661 7.07833 8.43086C6.97258 8.32511 6.84703 8.24122 6.70886 8.18399C6.57069 8.12676 6.4226 8.0973 6.27305 8.0973Z" stroke="#307791" stroke-linecap="round" stroke-linejoin="round"/>
</svg>
